<svg width="21" height="25" viewBox="0 0 21 25" fill="none" xmlns="http://www.w3.org/2000/svg">
<path fill-rule="evenodd" clip-rule="evenodd" d="M2.92069 0.122041C1.89591 0.416945 1.05544 1.08025 0.518282 2.01789C0.328163 2.34977 0.114948 2.98499 0.0490602 3.4157C0.0166519 3.62744 0.000401172 6.67747 0.000168354 12.5777C-0.000250719 22.3248 -0.0126833 21.8887 0.287745 22.6457C0.668729 23.6054 1.53099 24.5175 2.37454 24.8532C2.46418 24.8888 2.5574 24.9364 2.58175 24.959C2.60606 24.9815 5.40542 25 8.80247 25H14.979L15.3662 24.8015C16.2711 24.3378 16.8454 23.7419 17.2496 22.847C17.5857 22.1031 17.618 21.8781 17.6212 20.2632L17.6241 18.8226L17.5077 18.6051C17.0973 17.8384 16.1487 17.8384 15.7383 18.6051C15.6233 18.8199 15.6216 18.8402 15.5986 20.24L15.5753 21.6574L15.4226 21.9826C15.244 22.3627 14.9294 22.6835 14.5366 22.8858L14.2716 23.0223H8.82263H3.3737L3.06462 22.8627C2.67311 22.6605 2.28626 22.2353 2.13404 21.8398L2.02531 21.5573V12.6208C2.02531 4.14668 2.02964 3.67129 2.10899 3.43284C2.29161 2.884 2.68344 2.45417 3.20095 2.23506L3.46879 2.12162H8.82361H14.1784L14.4478 2.23564C14.8247 2.39518 15.2304 2.80099 15.4232 3.21128L15.5753 3.53514L15.5986 4.92968C15.6216 6.30663 15.6234 6.32728 15.7409 6.56647C15.8128 6.71302 15.9386 6.86674 16.0592 6.95567C16.2397 7.08869 16.293 7.10261 16.623 7.10261C16.9531 7.10261 17.0064 7.08869 17.1869 6.95567C17.3078 6.8665 17.433 6.71326 17.5052 6.56603L17.6241 6.32333L17.6231 4.93056C17.6223 3.95374 17.6035 3.45027 17.56 3.24478C17.2283 1.67733 16.1199 0.488974 14.626 0.0992362C14.2408 -0.00121383 14.1608 -0.00258116 8.78231 0.000934836L3.3291 0.0045485L2.92069 0.122041ZM16.751 8.41476C16.3239 8.58138 16.0634 8.95612 16.0653 9.401C16.067 9.80553 16.195 10.0124 16.8583 10.6828C17.3053 11.1346 17.4617 11.3229 17.4516 11.397C17.4379 11.4975 17.4343 11.4976 13.29 11.522L9.1422 11.5464L8.91306 11.6932C8.44337 11.9939 8.28896 12.6639 8.58222 13.1287C8.65141 13.2383 8.79534 13.3886 8.90207 13.4627L9.09614 13.5974L13.2664 13.6219C17.2673 13.6453 17.4373 13.6499 17.4531 13.736C17.4645 13.7979 17.2681 14.0405 16.8205 14.5174C16.1089 15.2757 16.0389 15.4003 16.0742 15.8463C16.1134 16.3426 16.4966 16.7444 16.9698 16.7856C17.4445 16.8269 17.4365 16.8333 19.2225 14.9709C20.1272 14.0275 20.8972 13.1963 20.9337 13.1237C20.9757 13.0401 21 12.8426 21 12.5839C21 12.2181 20.9863 12.1536 20.8667 11.9589C20.7031 11.6926 17.7841 8.65419 17.5459 8.50222C17.3285 8.36353 16.9803 8.32525 16.751 8.41476Z" fill="white"/>
</svg>
