<svg width="36" height="36" viewBox="0 0 36 36" fill="none" xmlns="http://www.w3.org/2000/svg">
<path fill-rule="evenodd" clip-rule="evenodd" d="M16.6901 0.0213084C16.5665 0.038518 16.1455 0.0885755 15.7543 0.132497C13.6932 0.363779 11.1333 1.19545 9.29239 2.23199C4.19898 5.09971 0.908951 9.94249 0.0977271 15.7658C-0.0465969 16.8019 -0.0276581 19.4069 0.132012 20.4841C0.421932 22.44 0.939942 24.0947 1.82902 25.9045C2.7511 27.7814 3.786 29.2358 5.23695 30.6935C6.73446 32.1979 8.18624 33.2369 10.1026 34.1757C12.7684 35.4816 15.0126 36 18 36C20.8929 36 23.2004 35.4848 25.6996 34.2806C27.6186 33.3561 29.2001 32.2511 30.6172 30.8448C32.1378 29.3358 33.2181 27.8335 34.1698 25.9045C35.0571 24.1061 35.5773 22.4456 35.8681 20.4841C36.0272 19.4108 36.0466 16.804 35.9033 15.7658C34.7757 7.60154 28.6212 1.36179 20.5078 0.157264C19.7876 0.0503402 17.1533 -0.0434895 16.6901 0.0213084ZM20.5078 2.44397C23.0819 2.87369 25.4101 3.86526 27.4921 5.41854C28.1997 5.9465 29.6158 7.30958 30.2142 8.03889C34.3586 13.0895 34.9309 20.2823 31.6368 25.9201C31.2933 26.5079 31.1404 26.6902 30.9908 26.6902C30.9366 26.6902 30.7819 26.4125 30.6469 26.0729C29.8509 24.0704 28.7917 22.4889 27.2968 21.0705C26.1383 19.9714 24.7207 19.0328 23.3935 18.4862C23.1238 18.3751 22.8383 18.2242 22.759 18.1508C22.618 18.0205 22.6278 18.0038 23.1924 17.413C24.1636 16.397 24.741 15.3742 25.0933 14.0457C25.2505 13.453 25.2821 13.1652 25.2823 12.3239C25.2825 11.23 25.1789 10.6104 24.849 9.73388C23.97 7.39772 21.9764 5.66636 19.5475 5.12949C18.6215 4.92485 16.9037 4.9651 16.0588 5.21128C13.4525 5.97067 11.498 8.00926 10.8348 10.6601C10.7457 11.016 10.7085 11.483 10.708 12.2491C10.7073 13.5527 10.8661 14.3002 11.3699 15.3631C11.786 16.2413 12.0361 16.6018 12.7673 17.3777C13.1053 17.7364 13.3404 18.0466 13.3181 18.1045C13.2968 18.1601 12.9814 18.3317 12.6172 18.4858C11.7937 18.8344 10.821 19.3873 9.99036 19.9791C9.1474 20.5797 7.60654 22.138 6.97962 23.0238C6.43114 23.7988 5.63669 25.2898 5.31495 26.1477C5.04771 26.8606 4.94201 26.8604 4.49669 26.1462C2.96295 23.6865 2.09828 20.3351 2.23796 17.3914C2.40294 13.9137 3.63921 10.655 5.78588 8.03889C6.38428 7.30958 7.80035 5.9465 8.50797 5.41854C10.9202 3.61894 13.8545 2.50959 16.8398 2.26881C17.6505 2.20341 19.634 2.29814 20.5078 2.44397ZM19.1633 7.3505C21.4643 7.94154 23.0421 9.93778 23.0351 12.2491C23.029 14.264 21.9985 15.9297 20.2083 16.8182C17.7026 18.0618 14.6693 17.0043 13.4344 14.4564C12.7376 13.0189 12.7489 11.5128 13.4675 10.0418C14.1223 8.70138 15.3632 7.69926 16.8023 7.34863C17.3751 7.20909 18.6167 7.21006 19.1633 7.3505ZM18.9983 19.6611C20.4896 19.7919 22.0954 20.2685 23.3328 20.9475C25.5991 22.1911 27.3382 24.0948 28.328 26.4156C28.6577 27.1885 28.9746 28.2281 29.0471 28.7748C29.0932 29.1226 29.0816 29.1559 28.8086 29.458C28.0657 30.28 26.4559 31.4033 24.956 32.1464C20.5763 34.3163 15.4238 34.3163 11.044 32.1464C8.99873 31.1331 6.92123 29.5188 6.92123 28.9429C6.92123 28.5699 7.2908 27.2824 7.62152 26.5031C9.37249 22.3776 13.2469 19.7602 17.8503 19.593C17.9944 19.5877 18.511 19.6184 18.9983 19.6611Z" fill="white"/>
</svg>
